<?xml version="1.0" standalone="no"?>
<!DOCTYPE svg PUBLIC "-//W3C//DTD SVG 20010904//EN"
 "http://www.w3.org/TR/2001/REC-SVG-20010904/DTD/svg10.dtd">
<svg version="1.0" xmlns="http://www.w3.org/2000/svg"
 width="1280.000000pt" height="1188.000000pt" viewBox="0 0 1280.000000 1188.000000"
 preserveAspectRatio="xMidYMid meet">
<metadata>
Created by potrace 1.15, written by Peter Selinger 2001-2017
</metadata>
<g transform="translate(0.000000,1188.000000) scale(0.100000,-0.100000)"
fill="#581010" stroke="none">
<path d="M954 11412 c-247 -251 -495 -505 -552 -563 l-103 -106 -33 -124 c-19
-68 -48 -180 -66 -249 -66 -253 -91 -349 -140 -534 -28 -104 -49 -191 -47
-193 13 -12 1557 -960 1556 -955 0 4 -56 54 -123 112 -67 58 -292 253 -500
434 l-378 330 6 35 c3 20 15 88 26 151 11 63 34 192 50 285 16 94 39 222 50
285 11 63 23 134 26 157 l7 42 418 261 419 260 273 -104 c149 -57 391 -149
536 -205 145 -55 265 -101 266 -103 2 -2 173 -322 380 -713 208 -390 514 -968
682 -1282 l304 -573 -10 -397 c-6 -219 -15 -614 -21 -878 -6 -264 -15 -645
-20 -847 -6 -202 -10 -389 -10 -417 0 -39 -4 -51 -18 -55 -13 -5 -18 -14 -15
-34 15 -133 21 -501 13 -842 -5 -217 -14 -604 -20 -860 -8 -340 -15 -488 -26
-550 -9 -47 -19 -89 -24 -95 -4 -5 -13 -71 -19 -145 -10 -104 -21 -164 -51
-260 -21 -69 -52 -172 -70 -230 -17 -58 -41 -133 -53 -167 l-22 -63 -350 -271
c-244 -189 -355 -269 -368 -265 -10 2 -77 -20 -148 -50 -72 -30 -136 -53 -142
-51 -7 2 -16 -2 -22 -9 -5 -7 -377 -166 -826 -354 -675 -281 -825 -340 -863
-340 -75 0 -143 -37 -118 -62 8 -8 32 -2 84 22 86 38 114 37 256 -8 l93 -30
172 55 c95 30 226 72 292 93 112 36 213 68 790 252 121 38 261 83 310 99 100
32 109 33 151 19 16 -6 310 -217 653 -468 l623 -458 217 -13 c119 -7 275 -16
346 -21 72 -5 231 -14 355 -20 234 -12 305 -25 795 -140 419 -99 534 -121 658
-130 278 -21 564 -32 887 -33 232 -2 341 -6 355 -14 16 -9 24 -8 37 4 13 11
54 17 160 23 241 14 677 64 750 86 9 2 41 9 71 14 60 9 75 15 675 279 603 265
1211 531 1422 624 102 44 187 83 190 87 3 4 131 32 285 63 657 132 1172 238
1202 246 83 23 162 125 149 193 -6 35 -22 59 -111 165 -27 33 -54 67 -60 76
-9 13 -66 -5 -425 -134 -228 -82 -578 -207 -777 -279 l-362 -129 -298 10
c-164 6 -393 13 -510 17 l-211 7 -540 750 c-486 673 -542 755 -556 810 -9 33
-19 70 -22 83 -6 19 -3 22 26 22 39 0 39 -3 -35 126 -30 52 -55 99 -55 102 0
29 -24 81 -38 84 -10 3 -114 176 -258 429 -1428 2515 -2660 4678 -2673 4693
-19 21 -121 110 -1031 891 -371 319 -763 655 -870 748 -192 166 -211 179
-1375 956 -649 433 -1185 790 -1191 794 -7 4 -199 -185 -460 -451z m9938
-10269 c-40 -2 -103 -2 -140 0 -37 2 -4 3 73 3 77 0 107 -2 67 -3z"/>
</g>
</svg>
